<?xml version="1.0" encoding="utf-8"?>
<!-- Generator: Adobe Illustrator 24.2.1, SVG Export Plug-In . SVG Version: 6.00 Build 0)  -->
<svg version="1.1" id="Livello_1" xmlns="http://www.w3.org/2000/svg" xmlns:xlink="http://www.w3.org/1999/xlink" x="0px" y="0px"
	 width="141.3px" height="32px" viewBox="0 0 141.3 32" style="enable-background:new 0 0 141.3 32;" xml:space="preserve">
<style type="text/css">
	.st0{fill-rule:evenodd;clip-rule:evenodd;fill:#009FE3;}
	.st1{fill:#009FE3;}
</style>
<path class="st0" d="M17.8,0H9.1L0,31.1h7.8l0.9-3.2h0.1c0.5,2.2,1.9,3.8,5.6,3.8c7.2,0,11.5-5.4,13.4-12c2-6.8-0.4-11.9-6-11.9
	c-2.6,0-4.9,0.9-7.2,2.9L17.8,0L17.8,0z M13.8,25.3c-2.8,0-2.8-3.1-2-5.5c0.6-2.3,2.6-5,5.1-5c2.8,0,2.8,2.8,2.2,5.2
	C18.3,22.5,16.6,25.3,13.8,25.3L13.8,25.3z"/>
<path class="st0" d="M50.6,31.2l0.1-0.4c-0.9-0.9-0.6-1.7-0.3-2.9l3.1-10.6c1.5-5.4,2.2-9.3-8.2-9.3c-8.6,0-12.8,2.8-14.2,7.6h8.3
	c0.8-1.9,2.4-2.2,3.7-2.2c0.9,0,2.8,0.3,2.3,1.9c-1.3,4.2-15.4-0.5-18.4,9.9c-1.4,4.7,1.7,6.8,5.8,6.8c3.2,0,6-0.6,9.1-3.1l-0.3,2.4
	L50.6,31.2L50.6,31.2z M38.1,26.8c-1.7,0-2.6-0.8-2.2-1.9c0.9-2.9,4.4-2.2,7.7-3.7C42.9,24.3,41.2,26.8,38.1,26.8L38.1,26.8z"/>
<path class="st1" d="M52.1,31.2h8.7l3.3-11.1c0.8-2.7,1.9-5,4.5-5c2.3,0,2.6,1.4,1.5,4.7l-3.5,11.5h8.7l3.3-11.1
	c0.8-2.7,1.9-5,4.5-5c2.3,0,2.6,1.4,1.5,4.7l-3.5,11.5H90l4-13.6c1.8-6.1,0.9-9.9-5.5-9.9c-3.2,0-6.1,1.4-8.7,4.1
	c-0.4-2.4-2-4.1-5.9-4.2c-3.1,0-6.5,2.3-8.1,4l1-3.3h-7.9L52.1,31.2L52.1,31.2z"/>
<path class="st0" d="M116.7,31.4l0.1-0.4c-0.9-0.9-0.6-1.7-0.3-2.9l3.1-10.6c1.5-5.4,2.2-9.3-8.2-9.3c-8.6,0-12.8,2.8-14.2,7.6h8.3
	c0.8-1.9,2.4-2.2,3.7-2.2c0.9,0,2.8,0.3,2.3,1.9c-1.3,4.2-15.4-0.5-18.4,9.9C91.8,30,94.8,32,98.9,32c3.2,0,6-0.6,9.1-3.1l-0.3,2.4
	H116.7L116.7,31.4z M104.4,26.9c-1.7,0-2.6-0.8-2.2-1.9c0.9-2.9,4.4-2.2,7.7-3.7C109.2,24.4,107.4,26.9,104.4,26.9L104.4,26.9z"/>
<path class="st1" d="M118.7,31.4h8.7l2.3-7.8c1.4-4.9,3.7-6.7,7.3-6.7c0.6,0,1.2,0.1,1.7,0.3l2.7-9c-0.4,0-0.8-0.1-1-0.1
	c-3.3,0-6,1.7-8.2,5.2H132l1.4-4.6h-7.9L118.7,31.4L118.7,31.4z"/>
</svg>
